<svg width="171" height="46" viewBox="0 0 171 46" fill="none" xmlns="http://www.w3.org/2000/svg">
<path d="M51.6445 42.0234V31.1719L48.3516 28.1953H70.1133L69.8789 34.0078L65.2031 30.8789H57.8203V35.9297H65.3438V38.5078H57.8203V42.0234L62.6367 45H48.3516L51.6445 42.0234ZM76.9688 30.5273C76.5469 30.5273 76.1484 30.4492 75.7734 30.293C75.4062 30.1289 75.0859 29.9102 74.8125 29.6367C74.5391 29.3633 74.3203 29.043 74.1562 28.6758C74 28.3008 73.9219 27.9023 73.9219 27.4805C73.9219 27.0586 74 26.6641 74.1562 26.2969C74.3203 25.9219 74.5391 25.5977 74.8125 25.3242C75.0859 25.043 75.4062 24.8242 75.7734 24.668C76.1484 24.5039 76.5469 24.4219 76.9688 24.4219C77.3906 24.4219 77.7852 24.5039 78.1523 24.668C78.5273 24.8242 78.8516 25.043 79.125 25.3242C79.4062 25.5977 79.625 25.9219 79.7812 26.2969C79.9453 26.6641 80.0273 27.0586 80.0273 27.4805C80.0273 27.9023 79.9453 28.3008 79.7812 28.6758C79.625 29.043 79.4062 29.3633 79.125 29.6367C78.8516 29.9102 78.5273 30.1289 78.1523 30.293C77.7852 30.4492 77.3906 30.5273 76.9688 30.5273ZM74.4961 42.1406V35.0039L71.4258 32.3789L79.9688 32.0273V42.1406L83.1445 45H71.3203L74.4961 42.1406ZM86.8711 42.1406V35.0039L83.8008 32.3789L92.4609 32.0273V34.5703C93.0234 33.6094 93.7617 32.8711 94.6758 32.3555C95.5977 31.832 96.6523 31.5703 97.8398 31.5703C98.7461 31.5703 99.5508 31.7109 100.254 31.9922C100.965 32.2656 101.559 32.6797 102.035 33.2344C102.52 33.7812 102.887 34.4688 103.137 35.2969C103.387 36.1172 103.512 37.0703 103.512 38.1562V42.1406L106.688 45H95.7656L97.9219 42.1406V38.4023C97.9219 37.9023 97.875 37.4297 97.7812 36.9844C97.6875 36.5391 97.5391 36.1484 97.3359 35.8125C97.1406 35.4766 96.8867 35.2109 96.5742 35.0156C96.2617 34.8203 95.8867 34.7227 95.4492 34.7227C95.0117 34.7227 94.6094 34.8203 94.2422 35.0156C93.875 35.2031 93.5586 35.4805 93.293 35.8477C93.0273 36.207 92.8203 36.6523 92.6719 37.1836C92.5312 37.707 92.4609 38.3086 92.4609 38.9883V42.1406L94.6172 45H83.6953L86.8711 42.1406ZM107.812 38.6719C107.812 37.6562 107.98 36.7188 108.316 35.8594C108.66 34.9922 109.145 34.2422 109.77 33.6094C110.402 32.9766 111.16 32.4805 112.043 32.1211C112.926 31.7539 113.914 31.5703 115.008 31.5703C115.57 31.5703 116.117 31.6211 116.648 31.7227C117.18 31.8164 117.68 31.9688 118.148 32.1797C118.625 32.3828 119.059 32.6484 119.449 32.9766C119.848 33.3047 120.195 33.7031 120.492 34.1719V29.4141L117.422 26.7891L126.082 26.4375V42.1406L129.258 45H120.492V42.8555C119.938 43.7383 119.215 44.3945 118.324 44.8242C117.441 45.2461 116.453 45.457 115.359 45.457C114.031 45.457 112.891 45.2734 111.938 44.9062C110.984 44.5391 110.203 44.0469 109.594 43.4297C108.984 42.8047 108.535 42.082 108.246 41.2617C107.957 40.4414 107.812 39.5781 107.812 38.6719ZM113.977 38.5195C113.977 39.1602 114.055 39.7227 114.211 40.207C114.375 40.6914 114.602 41.0977 114.891 41.4258C115.18 41.7461 115.523 41.9883 115.922 42.1523C116.32 42.3164 116.758 42.3984 117.234 42.3984C117.633 42.3984 118.023 42.3281 118.406 42.1875C118.797 42.0469 119.145 41.8242 119.449 41.5195C119.762 41.207 120.012 40.8047 120.199 40.3125C120.395 39.8203 120.492 39.2227 120.492 38.5195C120.492 37.793 120.398 37.1797 120.211 36.6797C120.031 36.1719 119.789 35.7617 119.484 35.4492C119.188 35.1289 118.844 34.8984 118.453 34.7578C118.062 34.6094 117.656 34.5352 117.234 34.5352C116.758 34.5352 116.32 34.6211 115.922 34.793C115.523 34.9648 115.18 35.2227 114.891 35.5664C114.602 35.9023 114.375 36.3203 114.211 36.8203C114.055 37.3125 113.977 37.8789 113.977 38.5195ZM130.664 38.707C130.664 37.7539 130.801 36.9141 131.074 36.1875C131.355 35.4609 131.73 34.8359 132.199 34.3125C132.676 33.7812 133.227 33.3398 133.852 32.9883C134.484 32.6367 135.156 32.3555 135.867 32.1445C136.578 31.9336 137.309 31.7852 138.059 31.6992C138.816 31.6133 139.551 31.5703 140.262 31.5703C141.395 31.5703 142.449 31.6953 143.426 31.9453C144.41 32.1953 145.262 32.5977 145.98 33.1523C146.699 33.707 147.262 34.4375 147.668 35.3438C148.082 36.2422 148.289 37.3398 148.289 38.6367H136.84C136.871 39.4492 137.008 40.1211 137.25 40.6523C137.5 41.1758 137.82 41.5938 138.211 41.9062C138.602 42.2109 139.047 42.4258 139.547 42.5508C140.047 42.6758 140.562 42.7383 141.094 42.7383C141.57 42.7383 142.086 42.7109 142.641 42.6562C143.195 42.6016 143.75 42.5 144.305 42.3516C144.859 42.1953 145.391 41.9844 145.898 41.7188C146.406 41.4531 146.848 41.1055 147.223 40.6758L148.418 41.6133C148.223 42.0898 147.949 42.5156 147.598 42.8906C147.246 43.2656 146.844 43.5977 146.391 43.8867C145.938 44.168 145.445 44.4102 144.914 44.6133C144.391 44.8086 143.852 44.9688 143.297 45.0938C142.742 45.2188 142.188 45.3086 141.633 45.3633C141.078 45.4258 140.547 45.457 140.039 45.457C138.609 45.457 137.316 45.3086 136.16 45.0117C135.012 44.7148 134.027 44.2812 133.207 43.7109C132.395 43.1328 131.766 42.4258 131.32 41.5898C130.883 40.7461 130.664 39.7852 130.664 38.707ZM142.617 36.8086C142.617 36.2305 142.562 35.7461 142.453 35.3555C142.352 34.957 142.195 34.6367 141.984 34.3945C141.773 34.1523 141.508 33.9805 141.188 33.8789C140.875 33.7695 140.508 33.7148 140.086 33.7148C139.195 33.7148 138.488 33.9844 137.965 34.5234C137.441 35.0625 137.098 35.8242 136.934 36.8086H142.617ZM153.176 42.1406V35.0039L150.105 32.3789L158.766 32.0273V34.5117C159.07 34.0273 159.418 33.6016 159.809 33.2344C160.207 32.8672 160.629 32.5625 161.074 32.3203C161.527 32.0703 161.996 31.8828 162.48 31.7578C162.973 31.6328 163.465 31.5703 163.957 31.5703C164.605 31.5703 165.164 31.6797 165.633 31.8984C166.109 32.1172 166.5 32.4258 166.805 32.8242C167.109 33.2148 167.336 33.6797 167.484 34.2188C167.633 34.7578 167.707 35.3438 167.707 35.9766C167.707 36.1797 167.699 36.3867 167.684 36.5977C167.668 36.8086 167.637 37.0156 167.59 37.2188L163.312 37.6055C163.344 37.4805 163.359 37.3633 163.359 37.2539C163.367 37.1367 163.371 37.0234 163.371 36.9141C163.371 36.5938 163.332 36.3008 163.254 36.0352C163.184 35.7695 163.074 35.543 162.926 35.3555C162.785 35.1602 162.602 35.0117 162.375 34.9102C162.156 34.8008 161.898 34.7461 161.602 34.7461C161.289 34.7461 161.004 34.8086 160.746 34.9336C160.488 35.0586 160.254 35.2266 160.043 35.4375C159.832 35.6484 159.645 35.8945 159.48 36.1758C159.324 36.4492 159.191 36.7383 159.082 37.043C158.98 37.3398 158.902 37.6406 158.848 37.9453C158.793 38.25 158.766 38.5352 158.766 38.8008V42.0234L162.844 45H150.117L153.176 42.1406Z" fill="#98C497"/>
<g clip-path="url(#clip0_5_12)">
<path d="M19.8767 0.144448C14.7622 0.816073 10.3148 2.94291 6.75695 6.43018C3.68656 9.43524 1.62538 13.0603 0.590465 17.2795C0.14573 19.0963 -0.00821489 20.4912 0.000335106 22.5319C0.00893011 26.2344 0.735905 29.2826 2.40365 32.6407C4.0714 35.9815 6.70565 38.9694 9.92144 41.1393C14.2149 44.0324 19.6629 45.4273 24.5806 44.8849C30.2254 44.2562 34.7326 42.1294 38.53 38.2806C43.6616 33.0712 45.8169 26.3378 44.7221 18.8293C44.0892 14.4208 41.5662 9.56439 38.2905 6.42154C35.1945 3.45951 31.4741 1.44468 27.403 0.531943C25.0682 0.0152984 22.0662 -0.148277 19.8767 0.144448ZM25.2735 2.98593C31.4399 3.89007 36.8879 7.87675 39.7103 13.5511C40.5655 15.2732 41.1813 17.2192 41.4892 19.1307C41.703 20.4567 41.703 24.0129 41.4892 25.2442C40.9162 28.4989 39.753 31.2544 37.8031 33.8978C37.478 34.3455 36.6314 35.2927 35.93 35.9987L34.6557 37.2731L34.707 37.9362L34.7583 38.5906L34.5102 37.6434C34.2195 36.5154 33.9629 35.8869 33.5866 35.3875C33.4327 35.1807 33.3043 34.9655 33.3043 34.9052C33.3129 34.8536 33.5267 34.6469 33.7919 34.4575C34.2708 34.1131 34.9294 33.4156 35.2886 32.8645C35.4168 32.6837 35.5965 32.5373 35.7761 32.4857C36.2037 32.3651 36.6912 31.8571 36.8024 31.4179C36.9222 30.996 36.8793 30.798 36.5885 30.3589L36.3748 30.0488L36.5629 29.1964C36.7511 28.3526 36.7511 28.3354 36.6056 27.0094C36.5287 26.2775 36.4688 25.5714 36.4688 25.4508C36.4688 25.1495 35.8103 23.8234 35.2886 23.0916C34.4162 21.8516 34.0912 21.5589 32.8254 20.9389C31.3543 20.2071 30.8156 20.0865 29.3273 20.1468C28.0274 20.1984 26.9326 20.4481 25.932 20.9303C24.9227 21.4125 23.7767 22.5577 22.6734 24.2023C22.2971 24.7534 22.2714 24.8223 22.2714 25.3561C22.2714 25.7694 22.1859 26.1742 21.9635 26.8716C21.5872 28.0512 21.6043 28.3268 22.1432 29.2481C22.357 29.6097 22.528 29.9542 22.528 29.9972C22.528 30.0488 22.4169 30.2125 22.2714 30.3674C21.8182 30.8583 21.8267 31.616 22.2971 32.1241C22.5622 32.4082 23.2122 32.6751 23.3747 32.5632C23.4175 32.5373 23.3833 32.3221 23.2892 32.0896C23.0326 31.4094 23.101 31.3835 23.4175 32.0466C24.0418 33.3725 24.8885 34.225 26.2484 34.8966C27.2747 35.396 28.1556 35.6199 29.4129 35.6801C29.9774 35.706 30.3622 35.7576 30.2682 35.7921C29.755 35.9729 27.3945 35.6371 26.3083 35.2238L25.7438 35.0086L25.5984 35.2066C25.282 35.6199 24.6576 36.989 24.5037 37.6003C24.4182 37.9534 24.2984 38.6681 24.2385 39.1847C24.0675 40.7948 23.9991 40.9412 23.8195 39.994C23.5202 38.4269 21.5103 31.0046 21.2623 30.5569C21.2281 30.488 20.6892 30.3072 20.0649 30.1522C19.4406 29.9886 18.7563 29.7992 18.5424 29.713C18.3372 29.6356 18.1405 29.5925 18.1149 29.6184C18.0892 29.6442 18.2346 29.8939 18.4399 30.1694C18.6451 30.4449 18.9359 30.8669 19.0898 31.0994C19.4919 31.7452 20.4241 33.76 20.6978 34.5608C20.9971 35.4133 20.9715 35.4735 20.0734 36.2398C19.7314 36.5326 19.4491 36.834 19.4491 36.9115C19.4491 36.9804 19.8425 37.4109 20.3215 37.8587C21.151 38.6422 21.1853 38.6939 21.1168 38.935L21.0399 39.1933L21.0057 38.9263C20.9886 38.7197 20.7833 38.4872 20.0905 37.8242C19.5945 37.3678 19.1925 36.9373 19.1925 36.8684C19.1925 36.8082 19.5004 36.4896 19.8682 36.1624C20.8089 35.353 20.8175 35.3013 20.4326 34.3111C19.7827 32.6493 18.3885 30.0833 17.8754 29.6011C17.7129 29.4461 17.653 29.2998 17.653 29.0673C17.653 28.7142 17.73 28.6281 18.1662 28.4818C18.6109 28.3354 19.0471 27.9995 19.3464 27.5776C19.5859 27.2418 19.6885 27.1815 20.3471 26.9749C20.7491 26.8457 21.0741 26.7079 21.0741 26.6736C21.0741 26.6305 20.9202 26.4066 20.732 26.1827C20.3642 25.735 20.2957 25.4164 20.5438 25.339C20.6208 25.3131 20.9202 25.27 21.2024 25.2355C21.4846 25.2097 21.7411 25.1667 21.7754 25.1409C21.8096 25.1237 21.724 24.7964 21.5872 24.4176C21.4418 24.0387 21.3307 23.6771 21.3307 23.6254C21.3307 23.5651 21.553 23.4532 21.8267 23.3585C22.434 23.1604 23.4688 22.6438 23.4688 22.5405C23.4688 22.4975 23.1523 22.2907 22.776 22.0841C22.0319 21.688 21.2794 21.0853 21.3905 20.982C21.4247 20.9475 21.7326 20.827 22.0576 20.7237C22.8786 20.4481 23.751 20.0434 24.4353 19.6042C24.7517 19.4062 25.0083 19.2254 24.9912 19.2168C24.9569 19.191 22.6393 18.1921 22.4169 18.1147C22.3142 18.0716 22.2885 18.02 22.3313 17.9425C22.3656 17.8735 22.93 17.3225 23.58 16.7197C24.2215 16.1084 24.7517 15.5831 24.7517 15.5488C24.7517 15.4798 24.2215 15.3851 22.6564 15.1612C22.0919 15.0752 21.5958 14.989 21.5616 14.9546C21.5188 14.9202 21.9122 14.1624 22.434 13.2755C23.2807 11.8203 23.4431 11.5104 23.3576 11.5104C23.3405 11.5104 22.6392 11.7601 21.8011 12.0701C20.578 12.5178 20.2444 12.604 20.1589 12.5178C19.9707 12.3284 19.7912 10.9076 19.7912 9.63324V8.40199L19.0984 8.77221C18.2859 9.21141 17.1997 10.0638 16.6951 10.658C16.5069 10.8904 16.3103 11.0799 16.2761 11.0799C16.2332 11.0799 15.9082 10.6838 15.5405 10.1929C14.9076 9.34911 13.8385 8.15229 13.7188 8.15229C13.6846 8.15229 13.6161 8.53114 13.5648 8.98749C13.4109 10.2791 12.9576 11.8548 12.7352 11.8548C12.6753 11.8548 12.2649 11.6826 11.8286 11.4759C11.1273 11.1487 10.0582 10.8215 9.66485 10.8215C9.56225 10.8215 9.61355 10.9765 9.86159 11.4845C10.2379 12.2509 10.58 13.4478 10.5372 13.8611L10.5116 14.1366L9.7418 14.1969C7.50102 14.3691 6.44906 14.4724 6.44906 14.5155C6.44906 14.5499 6.82535 14.9546 7.28723 15.4282C8.151 16.3065 8.78393 17.245 8.74113 17.5722C8.72403 17.6927 8.28785 18.0544 7.38983 18.683C6.66285 19.191 6.05562 19.6474 6.03852 19.6904C6.02142 19.7335 6.11548 19.7937 6.25232 19.8282C7.16748 20.0262 7.56087 20.1554 7.88591 20.3448C8.33064 20.6117 8.79248 21.0078 9.02342 21.335L9.19442 21.5761L8.23655 22.5319C7.43258 23.3412 7.29578 23.5048 7.39838 23.5996C7.46682 23.6598 7.97996 23.8579 8.54444 24.0301C9.10892 24.2023 9.605 24.3832 9.64775 24.4262C9.6905 24.4693 9.6221 24.9084 9.45956 25.5111C9.31421 26.0708 9.22007 26.5616 9.24572 26.6046C9.28856 26.6821 10.6997 26.6133 10.9306 26.5271C11.1444 26.4496 11.2299 26.6563 11.2899 27.3366C11.3241 27.7327 11.3754 28.0685 11.4096 28.0857C11.478 28.1287 12.4359 27.7154 12.4359 27.6466C12.4359 27.6207 12.3247 27.4399 12.1879 27.2418C11.6149 26.398 11.2214 25.339 10.9135 23.7804C10.7083 22.7902 10.6142 21.843 10.7169 21.843C10.7511 21.843 10.8109 22.1186 10.8451 22.4544C11.0162 24.3745 11.8971 26.8114 12.701 27.6207C12.9063 27.8274 13.3511 28.1201 13.7787 28.3181L14.4971 28.6539L14.4714 28.9725L14.4457 29.2911L12.5471 29.9283L10.6484 30.5655L10.4774 31.0908C10.3832 31.3835 9.98984 32.7181 9.61355 34.07C8.91222 36.524 8.69838 37.144 8.80103 36.4121C8.84378 36.0504 8.82668 36.016 8.39049 35.5338C5.66219 32.5718 3.97735 29.1017 3.31877 25.072C3.07078 23.5996 3.09643 20.4481 3.36157 19.0015C4.10564 14.9374 5.74773 11.6223 8.43324 8.78944C12.8122 4.18279 18.9445 2.0646 25.2735 2.98593ZM13.7017 30.8152C13.0859 32.0982 11.9912 35.1722 12.0852 35.3358C12.128 35.4133 12.4958 35.7663 12.9063 36.1279C13.3253 36.4896 13.6761 36.8254 13.6932 36.8857C13.7188 36.9459 13.5905 37.1353 13.4109 37.3162C13.2227 37.5142 13.1543 37.5573 13.2398 37.4281C13.5734 36.9029 13.599 36.9717 12.7352 36.171C12.1536 35.6285 11.9228 35.3616 11.9228 35.2152C11.9228 34.7674 13.6161 30.4536 13.7958 30.4536C13.8385 30.4536 13.7958 30.6172 13.7017 30.8152Z" fill="#98C497"/>
</g>
<defs>
<clipPath id="clip0_5_12">
<rect width="45" height="45" fill="white"/>
</clipPath>
</defs>
</svg>
