<svg xmlns="http://www.w3.org/2000/svg" xmlns:xlink="http://www.w3.org/1999/xlink" width="120" zoomAndPan="magnify" viewBox="0 0 90 89.999999" height="120" preserveAspectRatio="xMidYMid meet" version="1.0"><defs><clipPath id="id1"><path d="M 4.226562 4.53125 L 63 4.53125 L 63 63 L 4.226562 63 Z M 4.226562 4.53125 " clip-rule="nonzero"/></clipPath><clipPath id="id2"><path d="M 60 60 L 85.976562 60 L 85.976562 85.53125 L 60 85.53125 Z M 60 60 " clip-rule="nonzero"/></clipPath><clipPath id="id3"><path d="M 10.882812 11.363281 L 55.882812 11.363281 L 55.882812 56.363281 L 10.882812 56.363281 Z M 10.882812 11.363281 " clip-rule="nonzero"/></clipPath></defs><g clip-path="url(#id1)"><path fill="#000000" d="M 33.457031 4.539062 C 17.378906 4.539062 4.296875 17.597656 4.296875 33.648438 C 4.296875 49.703125 17.378906 62.761719 33.457031 62.761719 C 49.539062 62.761719 62.621094 49.703125 62.621094 33.648438 C 62.621094 17.597656 49.539062 4.539062 33.457031 4.539062 Z M 33.457031 58.1875 C 19.90625 58.1875 8.878906 47.179688 8.878906 33.648438 C 8.878906 20.121094 19.90625 9.113281 33.457031 9.113281 C 47.011719 9.113281 58.039062 20.121094 58.039062 33.648438 C 58.039062 47.179688 47.011719 58.1875 33.457031 58.1875 Z M 33.457031 58.1875 " fill-opacity="1" fill-rule="nonzero"/></g><path fill="#000000" d="M 62.671875 58.734375 L 57.527344 53.597656 C 56.246094 55.132812 54.824219 56.542969 53.277344 57.808594 L 58.507812 63.027344 C 58.839844 62.078125 59.382812 61.1875 60.140625 60.429688 L 60.285156 60.285156 C 60.976562 59.597656 61.789062 59.074219 62.671875 58.734375 Z M 62.671875 58.734375 " fill-opacity="1" fill-rule="nonzero"/><g clip-path="url(#id2)"><path fill="#000000" d="M 68.542969 61.792969 C 67.648438 60.898438 66.449219 60.40625 65.171875 60.40625 C 63.890625 60.40625 62.691406 60.898438 61.796875 61.792969 L 61.648438 61.9375 C 60.753906 62.832031 60.257812 64.03125 60.257812 65.304688 C 60.257812 66.582031 60.753906 67.78125 61.648438 68.675781 L 77.160156 84.15625 C 78.054688 85.054688 79.253906 85.546875 80.535156 85.546875 C 81.8125 85.546875 83.011719 85.054688 83.90625 84.15625 L 84.054688 84.011719 C 85.914062 82.15625 85.914062 79.132812 84.054688 77.273438 Z M 68.542969 61.792969 " fill-opacity="1" fill-rule="nonzero"/></g><g clip-path="url(#id3)"><path fill="#000000" d="M 30.757812 11.507812 C 25.644531 12.179688 21.195312 14.304688 17.640625 17.792969 C 14.566406 20.796875 12.507812 24.421875 11.472656 28.640625 C 11.027344 30.460938 10.875 31.855469 10.882812 33.894531 C 10.890625 37.597656 11.617188 40.644531 13.285156 44.003906 C 14.953125 47.34375 17.585938 50.332031 20.804688 52.503906 C 25.097656 55.394531 30.542969 56.789062 35.460938 56.246094 C 41.105469 55.621094 45.613281 53.492188 49.410156 49.644531 C 54.542969 44.433594 56.699219 37.699219 55.605469 30.191406 C 54.972656 25.785156 52.449219 20.925781 49.171875 17.785156 C 46.078125 14.824219 42.355469 12.808594 38.285156 11.894531 C 35.949219 11.378906 32.949219 11.214844 30.757812 11.507812 Z M 36.15625 14.347656 C 42.320312 15.253906 47.769531 19.238281 50.59375 24.914062 C 51.449219 26.636719 52.0625 28.582031 52.371094 30.492188 C 52.585938 31.820312 52.585938 35.375 52.371094 36.605469 C 51.796875 39.863281 50.636719 42.617188 48.683594 45.261719 C 48.359375 45.707031 47.511719 46.65625 46.8125 47.363281 L 45.539062 48.636719 L 45.589844 49.300781 L 45.640625 49.953125 L 45.390625 49.007812 C 45.101562 47.878906 44.84375 47.25 44.46875 46.75 C 44.3125 46.542969 44.1875 46.328125 44.1875 46.269531 C 44.195312 46.214844 44.410156 46.011719 44.671875 45.820312 C 45.152344 45.476562 45.8125 44.777344 46.171875 44.226562 C 46.296875 44.046875 46.476562 43.898438 46.65625 43.847656 C 47.085938 43.726562 47.574219 43.21875 47.683594 42.78125 C 47.804688 42.359375 47.761719 42.160156 47.46875 41.722656 L 47.257812 41.410156 L 47.445312 40.558594 C 47.632812 39.714844 47.632812 39.699219 47.488281 38.371094 C 47.410156 37.640625 47.351562 36.933594 47.351562 36.8125 C 47.351562 36.511719 46.691406 35.1875 46.171875 34.453125 C 45.296875 33.214844 44.972656 32.921875 43.707031 32.300781 C 42.234375 31.570312 41.699219 31.449219 40.210938 31.507812 C 38.910156 31.5625 37.8125 31.8125 36.8125 32.292969 C 35.804688 32.777344 34.660156 33.921875 33.554688 35.566406 C 33.179688 36.117188 33.152344 36.183594 33.152344 36.71875 C 33.152344 37.132812 33.066406 37.539062 32.84375 38.234375 C 32.46875 39.414062 32.484375 39.691406 33.023438 40.609375 C 33.238281 40.972656 33.410156 41.316406 33.410156 41.359375 C 33.410156 41.410156 33.296875 41.574219 33.152344 41.730469 C 32.699219 42.222656 32.707031 42.980469 33.179688 43.488281 C 33.445312 43.769531 34.09375 44.039062 34.257812 43.925781 C 34.300781 43.898438 34.265625 43.683594 34.171875 43.453125 C 33.914062 42.773438 33.984375 42.746094 34.300781 43.410156 C 34.921875 44.734375 35.769531 45.589844 37.128906 46.257812 C 38.15625 46.757812 39.039062 46.984375 40.292969 47.042969 C 40.859375 47.070312 41.242188 47.121094 41.148438 47.15625 C 40.636719 47.335938 38.277344 47 37.191406 46.585938 L 36.625 46.371094 L 36.480469 46.570312 C 36.164062 46.984375 35.539062 48.351562 35.386719 48.964844 C 35.300781 49.316406 35.179688 50.03125 35.121094 50.546875 C 34.949219 52.15625 34.878906 52.304688 34.703125 51.355469 C 34.402344 49.789062 32.390625 42.367188 32.144531 41.917969 C 32.109375 41.851562 31.570312 41.671875 30.945312 41.515625 C 30.324219 41.351562 29.636719 41.164062 29.425781 41.074219 C 29.21875 41 29.023438 40.957031 28.996094 40.980469 C 28.972656 41.007812 29.117188 41.257812 29.320312 41.53125 C 29.527344 41.808594 29.816406 42.230469 29.972656 42.460938 C 30.375 43.109375 31.304688 45.121094 31.578125 45.921875 C 31.878906 46.777344 31.851562 46.835938 30.957031 47.601562 C 30.613281 47.894531 30.332031 48.195312 30.332031 48.273438 C 30.332031 48.34375 30.722656 48.773438 31.203125 49.222656 C 32.03125 50.003906 32.066406 50.058594 32 50.296875 L 31.921875 50.554688 L 31.886719 50.289062 C 31.871094 50.082031 31.664062 49.851562 30.972656 49.1875 C 30.476562 48.730469 30.074219 48.300781 30.074219 48.230469 C 30.074219 48.171875 30.382812 47.851562 30.75 47.523438 C 31.691406 46.714844 31.699219 46.664062 31.3125 45.675781 C 30.664062 44.011719 29.269531 41.445312 28.757812 40.964844 C 28.59375 40.808594 28.535156 40.664062 28.535156 40.429688 C 28.535156 40.078125 28.613281 39.992188 29.046875 39.84375 C 29.492188 39.699219 29.929688 39.363281 30.226562 38.941406 C 30.46875 38.605469 30.570312 38.542969 31.230469 38.335938 C 31.628906 38.207031 31.957031 38.070312 31.957031 38.035156 C 31.957031 37.992188 31.800781 37.769531 31.613281 37.546875 C 31.246094 37.097656 31.175781 36.78125 31.425781 36.703125 C 31.503906 36.675781 31.800781 36.632812 32.085938 36.597656 C 32.367188 36.574219 32.621094 36.53125 32.65625 36.503906 C 32.691406 36.488281 32.605469 36.160156 32.46875 35.78125 C 32.324219 35.402344 32.210938 35.039062 32.210938 34.988281 C 32.210938 34.929688 32.433594 34.816406 32.707031 34.722656 C 33.316406 34.523438 34.351562 34.007812 34.351562 33.902344 C 34.351562 33.859375 34.035156 33.652344 33.65625 33.445312 C 32.914062 33.050781 32.160156 32.449219 32.273438 32.34375 C 32.304688 32.308594 32.613281 32.191406 32.9375 32.085938 C 33.761719 31.8125 34.632812 31.40625 35.316406 30.96875 C 35.632812 30.769531 35.890625 30.589844 35.871094 30.578125 C 35.839844 30.554688 33.519531 29.554688 33.296875 29.476562 C 33.195312 29.433594 33.171875 29.382812 33.214844 29.304688 C 33.246094 29.238281 33.8125 28.683594 34.460938 28.082031 C 35.101562 27.472656 35.632812 26.945312 35.632812 26.910156 C 35.632812 26.84375 35.101562 26.75 33.539062 26.523438 C 32.972656 26.4375 32.476562 26.351562 32.445312 26.316406 C 32.402344 26.28125 32.792969 25.523438 33.316406 24.636719 C 34.164062 23.183594 34.324219 22.875 34.238281 22.875 C 34.222656 22.875 33.519531 23.125 32.683594 23.433594 C 31.460938 23.878906 31.125 23.96875 31.039062 23.878906 C 30.851562 23.691406 30.671875 22.269531 30.671875 20.996094 L 30.671875 19.765625 L 29.980469 20.136719 C 29.167969 20.574219 28.082031 21.425781 27.578125 22.019531 C 27.390625 22.253906 27.191406 22.441406 27.15625 22.441406 C 27.113281 22.441406 26.789062 22.046875 26.421875 21.554688 C 25.789062 20.710938 24.71875 19.515625 24.601562 19.515625 C 24.566406 19.515625 24.496094 19.894531 24.445312 20.351562 C 24.292969 21.640625 23.839844 23.21875 23.617188 23.21875 C 23.558594 23.21875 23.148438 23.046875 22.710938 22.839844 C 22.007812 22.511719 20.941406 22.183594 20.546875 22.183594 C 20.445312 22.183594 20.496094 22.339844 20.742188 22.847656 C 21.121094 23.613281 21.460938 24.8125 21.417969 25.222656 L 21.394531 25.5 L 20.625 25.558594 C 18.382812 25.730469 17.332031 25.835938 17.332031 25.878906 C 17.332031 25.914062 17.707031 26.316406 18.167969 26.792969 C 19.03125 27.667969 19.664062 28.609375 19.621094 28.933594 C 19.605469 29.054688 19.167969 29.417969 18.273438 30.046875 C 17.542969 30.554688 16.9375 31.011719 16.921875 31.054688 C 16.902344 31.097656 16.996094 31.15625 17.132812 31.191406 C 18.050781 31.390625 18.441406 31.519531 18.769531 31.707031 C 19.210938 31.976562 19.675781 32.371094 19.90625 32.699219 L 20.078125 32.9375 L 19.117188 33.894531 C 18.3125 34.703125 18.175781 34.867188 18.28125 34.960938 C 18.347656 35.023438 18.863281 35.222656 19.425781 35.394531 C 19.992188 35.566406 20.488281 35.746094 20.53125 35.789062 C 20.574219 35.832031 20.503906 36.269531 20.339844 36.875 C 20.195312 37.433594 20.101562 37.925781 20.128906 37.96875 C 20.171875 38.046875 21.582031 37.976562 21.8125 37.890625 C 22.027344 37.8125 22.113281 38.019531 22.171875 38.699219 C 22.207031 39.09375 22.257812 39.429688 22.292969 39.449219 C 22.359375 39.492188 23.316406 39.078125 23.316406 39.007812 C 23.316406 38.984375 23.207031 38.804688 23.070312 38.605469 C 22.496094 37.761719 22.101562 36.703125 21.796875 35.144531 C 21.589844 34.152344 21.496094 33.207031 21.597656 33.207031 C 21.632812 33.207031 21.691406 33.480469 21.726562 33.816406 C 21.898438 35.738281 22.777344 38.175781 23.582031 38.984375 C 23.789062 39.191406 24.234375 39.484375 24.660156 39.679688 L 25.378906 40.015625 L 25.351562 40.335938 L 25.328125 40.652344 L 23.429688 41.292969 L 21.53125 41.929688 L 21.359375 42.453125 C 21.265625 42.746094 20.871094 44.082031 20.496094 45.433594 C 19.792969 47.886719 19.582031 48.507812 19.683594 47.773438 C 19.726562 47.414062 19.707031 47.378906 19.273438 46.898438 C 16.542969 43.933594 14.859375 40.464844 14.199219 36.433594 C 13.953125 34.960938 13.976562 31.8125 14.242188 30.363281 C 14.988281 26.300781 16.628906 22.984375 19.316406 20.152344 C 23.695312 15.546875 29.828125 13.425781 36.15625 14.347656 Z M 24.582031 42.179688 C 23.96875 43.460938 22.871094 46.535156 22.96875 46.699219 C 23.007812 46.777344 23.378906 47.128906 23.789062 47.492188 C 24.207031 47.851562 24.558594 48.1875 24.574219 48.25 C 24.601562 48.308594 24.472656 48.5 24.292969 48.679688 C 24.105469 48.878906 24.035156 48.921875 24.121094 48.792969 C 24.457031 48.265625 24.480469 48.335938 23.617188 47.535156 C 23.035156 46.992188 22.804688 46.722656 22.804688 46.578125 C 22.804688 46.128906 24.496094 41.816406 24.675781 41.816406 C 24.71875 41.816406 24.675781 41.980469 24.582031 42.179688 Z M 24.582031 42.179688 " fill-opacity="1" fill-rule="nonzero"/></g></svg>