<svg xmlns="http://www.w3.org/2000/svg" xmlns:xlink="http://www.w3.org/1999/xlink" width="100" zoomAndPan="magnify" viewBox="0 0 75 74.999997" height="100" preserveAspectRatio="xMidYMid meet" version="1.0"><defs><filter x="0%" y="0%" width="100%" height="100%" id="id1"><feColorMatrix values="0 0 0 0 1 0 0 0 0 1 0 0 0 0 1 0 0 0 1 0" color-interpolation-filters="sRGB"/></filter><mask id="id2"><g filter="url(#id1)"><rect x="-7.5" width="90" fill="#000000" y="-7.5" height="89.999996" fill-opacity="0.4667"/></g></mask><clipPath id="id3"><path d="M 0.878906 0.0507812 L 45.128906 0.0507812 L 45.128906 44.300781 L 0.878906 44.300781 Z M 0.878906 0.0507812 " clip-rule="nonzero"/></clipPath><clipPath id="id4"><rect x="0" width="46" y="0" height="45"/></clipPath><clipPath id="id5"><path d="M 9.066406 9.46875 L 58.566406 9.46875 L 58.566406 58.96875 L 9.066406 58.96875 Z M 9.066406 9.46875 " clip-rule="nonzero"/></clipPath><clipPath id="id6"><path d="M 1.414062 2.152344 L 66 2.152344 L 66 67 L 1.414062 67 Z M 1.414062 2.152344 " clip-rule="nonzero"/></clipPath><clipPath id="id7"><path d="M 0.75 1.125 L 67.5 1.125 L 67.5 67.875 L 0.75 67.875 Z M 0.75 1.125 " clip-rule="nonzero"/></clipPath><clipPath id="id8"><path d="M 1.414062 2.152344 L 65.164062 2.152344 L 65.164062 65.902344 L 1.414062 65.902344 Z M 1.414062 2.152344 " clip-rule="nonzero"/></clipPath></defs><g mask="url(#id2)"><g transform="matrix(1, 0, 0, 1, 11, 12)"><g clip-path="url(#id4)"><g clip-path="url(#id3)"><path fill="#d7dddc" d="M 23.003906 0.0507812 C 10.785156 0.0507812 0.878906 9.957031 0.878906 22.175781 C 0.878906 34.394531 10.785156 44.300781 23.003906 44.300781 C 35.222656 44.300781 45.128906 34.394531 45.128906 22.175781 C 45.128906 9.957031 35.222656 0.0507812 23.003906 0.0507812 " fill-opacity="1" fill-rule="nonzero"/></g></g></g></g><g clip-path="url(#id5)"><path fill="#181919" d="M 30.933594 9.628906 C 25.304688 10.367188 20.414062 12.707031 16.5 16.542969 C 13.125 19.847656 10.855469 23.835938 9.71875 28.476562 C 9.226562 30.476562 9.058594 32.007812 9.070312 34.253906 C 9.078125 38.328125 9.878906 41.679688 11.710938 45.375 C 13.546875 49.050781 16.445312 52.335938 19.980469 54.722656 C 24.703125 57.90625 30.699219 59.4375 36.105469 58.84375 C 42.316406 58.152344 47.273438 55.8125 51.449219 51.578125 C 57.097656 45.847656 59.464844 38.441406 58.261719 30.179688 C 57.566406 25.332031 54.789062 19.988281 51.1875 16.53125 C 47.78125 13.273438 43.691406 11.058594 39.210938 10.054688 C 36.644531 9.484375 33.339844 9.304688 30.933594 9.628906 Z M 36.867188 12.753906 C 43.652344 13.75 49.644531 18.132812 52.75 24.375 C 53.691406 26.269531 54.367188 28.410156 54.707031 30.511719 C 54.941406 31.972656 54.941406 35.882812 54.707031 37.238281 C 54.074219 40.816406 52.796875 43.847656 50.652344 46.757812 C 50.292969 47.25 49.363281 48.292969 48.589844 49.066406 L 47.1875 50.46875 L 47.246094 51.199219 L 47.300781 51.917969 L 47.03125 50.875 C 46.710938 49.636719 46.425781 48.945312 46.011719 48.394531 C 45.84375 48.167969 45.703125 47.929688 45.703125 47.863281 C 45.710938 47.808594 45.949219 47.582031 46.238281 47.371094 C 46.765625 46.992188 47.492188 46.226562 47.886719 45.621094 C 48.027344 45.421875 48.222656 45.261719 48.421875 45.203125 C 48.890625 45.070312 49.429688 44.511719 49.550781 44.027344 C 49.683594 43.566406 49.636719 43.347656 49.316406 42.863281 L 49.082031 42.523438 L 49.289062 41.585938 C 49.496094 40.65625 49.496094 40.636719 49.335938 39.179688 C 49.25 38.375 49.183594 37.597656 49.183594 37.464844 C 49.183594 37.132812 48.460938 35.675781 47.886719 34.871094 C 46.925781 33.507812 46.570312 33.183594 45.175781 32.503906 C 43.558594 31.695312 42.964844 31.5625 41.328125 31.628906 C 39.898438 31.6875 38.695312 31.960938 37.59375 32.492188 C 36.484375 33.023438 35.222656 34.28125 34.007812 36.089844 C 33.59375 36.699219 33.566406 36.773438 33.566406 37.359375 C 33.566406 37.816406 33.472656 38.261719 33.226562 39.027344 C 32.8125 40.324219 32.832031 40.628906 33.425781 41.640625 C 33.660156 42.039062 33.847656 42.417969 33.847656 42.464844 C 33.847656 42.523438 33.726562 42.703125 33.566406 42.875 C 33.066406 43.414062 33.078125 44.246094 33.59375 44.804688 C 33.886719 45.117188 34.601562 45.410156 34.78125 45.289062 C 34.828125 45.261719 34.789062 45.023438 34.6875 44.769531 C 34.402344 44.019531 34.480469 43.992188 34.828125 44.71875 C 35.515625 46.179688 36.445312 47.117188 37.941406 47.855469 C 39.070312 48.40625 40.039062 48.652344 41.421875 48.71875 C 42.042969 48.746094 42.464844 48.800781 42.363281 48.839844 C 41.796875 49.039062 39.203125 48.671875 38.007812 48.214844 L 37.386719 47.980469 L 37.226562 48.195312 C 36.878906 48.652344 36.191406 50.15625 36.023438 50.828125 C 35.929688 51.21875 35.796875 52.003906 35.730469 52.570312 C 35.542969 54.34375 35.46875 54.503906 35.269531 53.460938 C 34.941406 51.738281 32.730469 43.574219 32.457031 43.082031 C 32.417969 43.007812 31.828125 42.808594 31.140625 42.636719 C 30.453125 42.457031 29.699219 42.25 29.464844 42.152344 C 29.238281 42.066406 29.023438 42.019531 28.996094 42.050781 C 28.964844 42.078125 29.125 42.351562 29.351562 42.65625 C 29.578125 42.957031 29.898438 43.421875 30.066406 43.679688 C 30.507812 44.390625 31.535156 46.605469 31.835938 47.484375 C 32.164062 48.421875 32.136719 48.488281 31.148438 49.332031 C 30.773438 49.65625 30.460938 49.988281 30.460938 50.070312 C 30.460938 50.148438 30.894531 50.621094 31.421875 51.113281 C 32.335938 51.976562 32.371094 52.03125 32.296875 52.296875 L 32.210938 52.582031 L 32.175781 52.289062 C 32.15625 52.0625 31.929688 51.804688 31.167969 51.074219 C 30.621094 50.574219 30.179688 50.101562 30.179688 50.023438 C 30.179688 49.957031 30.519531 49.609375 30.921875 49.246094 C 31.957031 48.359375 31.96875 48.300781 31.542969 47.210938 C 30.828125 45.382812 29.296875 42.5625 28.730469 42.03125 C 28.550781 41.859375 28.488281 41.699219 28.488281 41.441406 C 28.488281 41.054688 28.570312 40.960938 29.050781 40.800781 C 29.539062 40.636719 30.019531 40.269531 30.347656 39.804688 C 30.613281 39.433594 30.726562 39.367188 31.449219 39.140625 C 31.890625 39 32.25 38.847656 32.25 38.808594 C 32.25 38.761719 32.082031 38.515625 31.875 38.269531 C 31.46875 37.777344 31.394531 37.425781 31.667969 37.34375 C 31.75 37.3125 32.082031 37.265625 32.390625 37.226562 C 32.703125 37.199219 32.984375 37.152344 33.019531 37.125 C 33.058594 37.105469 32.964844 36.746094 32.8125 36.328125 C 32.652344 35.910156 32.53125 35.515625 32.53125 35.457031 C 32.53125 35.390625 32.777344 35.269531 33.078125 35.164062 C 33.746094 34.945312 34.882812 34.378906 34.882812 34.265625 C 34.882812 34.214844 34.535156 33.988281 34.121094 33.761719 C 33.304688 33.324219 32.476562 32.664062 32.597656 32.550781 C 32.636719 32.511719 32.972656 32.378906 33.332031 32.265625 C 34.234375 31.960938 35.195312 31.515625 35.945312 31.035156 C 36.296875 30.816406 36.578125 30.617188 36.558594 30.609375 C 36.519531 30.578125 33.972656 29.480469 33.726562 29.394531 C 33.613281 29.347656 33.585938 29.292969 33.632812 29.207031 C 33.671875 29.128906 34.292969 28.523438 35.007812 27.859375 C 35.710938 27.1875 36.296875 26.609375 36.296875 26.574219 C 36.296875 26.496094 35.710938 26.394531 33.988281 26.144531 C 33.371094 26.050781 32.824219 25.957031 32.785156 25.917969 C 32.738281 25.882812 33.171875 25.046875 33.746094 24.070312 C 34.675781 22.472656 34.855469 22.128906 34.761719 22.128906 C 34.742188 22.128906 33.972656 22.40625 33.050781 22.746094 C 31.703125 23.238281 31.335938 23.332031 31.242188 23.238281 C 31.035156 23.03125 30.839844 21.46875 30.839844 20.066406 L 30.839844 18.710938 L 30.078125 19.117188 C 29.183594 19.601562 27.988281 20.539062 27.433594 21.191406 C 27.226562 21.449219 27.007812 21.65625 26.972656 21.65625 C 26.925781 21.65625 26.566406 21.222656 26.164062 20.679688 C 25.464844 19.753906 24.289062 18.4375 24.160156 18.4375 C 24.121094 18.4375 24.046875 18.851562 23.988281 19.355469 C 23.820312 20.777344 23.320312 22.507812 23.078125 22.507812 C 23.011719 22.507812 22.558594 22.320312 22.078125 22.09375 C 21.308594 21.734375 20.132812 21.371094 19.699219 21.371094 C 19.585938 21.371094 19.644531 21.542969 19.914062 22.101562 C 20.328125 22.945312 20.707031 24.261719 20.660156 24.714844 L 20.632812 25.019531 L 19.785156 25.085938 C 17.320312 25.273438 16.160156 25.390625 16.160156 25.4375 C 16.160156 25.472656 16.574219 25.917969 17.085938 26.441406 C 18.035156 27.40625 18.730469 28.4375 18.683594 28.796875 C 18.664062 28.929688 18.183594 29.328125 17.195312 30.019531 C 16.398438 30.578125 15.730469 31.082031 15.710938 31.128906 C 15.691406 31.175781 15.796875 31.242188 15.945312 31.28125 C 16.953125 31.496094 17.386719 31.640625 17.742188 31.847656 C 18.230469 32.140625 18.738281 32.578125 18.992188 32.9375 L 19.183594 33.203125 L 18.128906 34.253906 C 17.242188 35.144531 17.09375 35.324219 17.207031 35.429688 C 17.28125 35.496094 17.847656 35.710938 18.46875 35.902344 C 19.089844 36.089844 19.632812 36.289062 19.679688 36.339844 C 19.726562 36.386719 19.652344 36.867188 19.472656 37.53125 C 19.3125 38.148438 19.210938 38.6875 19.238281 38.734375 C 19.285156 38.820312 20.835938 38.742188 21.09375 38.648438 C 21.328125 38.5625 21.421875 38.792969 21.488281 39.539062 C 21.523438 39.976562 21.582031 40.34375 21.617188 40.363281 C 21.695312 40.410156 22.746094 39.957031 22.746094 39.878906 C 22.746094 39.851562 22.625 39.652344 22.476562 39.433594 C 21.84375 38.507812 21.410156 37.34375 21.074219 35.628906 C 20.847656 34.539062 20.742188 33.496094 20.855469 33.496094 C 20.894531 33.496094 20.960938 33.800781 20.996094 34.167969 C 21.1875 36.28125 22.15625 38.960938 23.039062 39.851562 C 23.265625 40.078125 23.753906 40.402344 24.226562 40.617188 L 25.015625 40.988281 L 24.988281 41.339844 L 24.957031 41.6875 L 22.871094 42.390625 L 20.78125 43.089844 L 20.59375 43.667969 C 20.488281 43.992188 20.058594 45.460938 19.644531 46.945312 C 18.871094 49.644531 18.636719 50.328125 18.75 49.523438 C 18.796875 49.125 18.777344 49.085938 18.296875 48.554688 C 15.296875 45.296875 13.441406 41.480469 12.71875 37.046875 C 12.445312 35.429688 12.472656 31.960938 12.765625 30.371094 C 13.585938 25.898438 15.390625 22.253906 18.34375 19.136719 C 23.160156 14.070312 29.90625 11.738281 36.867188 12.753906 Z M 24.140625 43.367188 C 23.460938 44.777344 22.257812 48.160156 22.363281 48.339844 C 22.410156 48.421875 22.8125 48.8125 23.265625 49.210938 C 23.726562 49.609375 24.113281 49.976562 24.128906 50.042969 C 24.160156 50.109375 24.019531 50.316406 23.820312 50.515625 C 23.613281 50.734375 23.539062 50.78125 23.632812 50.640625 C 24 50.0625 24.027344 50.136719 23.078125 49.257812 C 22.4375 48.660156 22.183594 48.367188 22.183594 48.207031 C 22.183594 47.714844 24.046875 42.96875 24.242188 42.96875 C 24.289062 42.96875 24.242188 43.148438 24.140625 43.367188 Z M 24.140625 43.367188 " fill-opacity="1" fill-rule="nonzero"/></g><g clip-path="url(#id6)"><path fill="#181919" d="M 33.59375 2.15625 C 15.890625 2.15625 1.488281 16.546875 1.488281 34.234375 C 1.488281 51.921875 15.890625 66.308594 33.59375 66.308594 C 51.296875 66.308594 65.699219 51.921875 65.699219 34.234375 C 65.699219 16.546875 51.296875 2.15625 33.59375 2.15625 Z M 33.59375 61.269531 C 18.671875 61.269531 6.53125 49.140625 6.53125 34.234375 C 6.53125 19.324219 18.671875 7.199219 33.59375 7.199219 C 48.515625 7.199219 60.652344 19.324219 60.652344 34.234375 C 60.652344 49.140625 48.515625 61.269531 33.59375 61.269531 Z M 33.59375 61.269531 " fill-opacity="1" fill-rule="nonzero"/></g><path fill="#181919" d="M 65.757812 61.875 L 60.089844 56.210938 C 58.683594 57.902344 57.117188 59.457031 55.414062 60.851562 L 61.171875 66.601562 C 61.535156 65.558594 62.132812 64.578125 62.96875 63.742188 L 63.128906 63.582031 C 63.890625 62.824219 64.78125 62.25 65.757812 61.875 Z M 65.757812 61.875 " fill-opacity="1" fill-rule="nonzero"/><path fill="#181919" d="M 72.222656 65.242188 C 71.234375 64.253906 69.914062 63.710938 68.507812 63.710938 C 67.097656 63.710938 65.777344 64.253906 64.792969 65.242188 L 64.632812 65.402344 C 63.644531 66.390625 63.101562 67.707031 63.101562 69.113281 C 63.101562 70.519531 63.644531 71.839844 64.632812 72.824219 L 81.707031 89.886719 C 82.695312 90.871094 84.011719 91.414062 85.421875 91.414062 C 86.828125 91.414062 88.148438 90.871094 89.136719 89.886719 L 89.296875 89.726562 C 91.34375 87.679688 91.34375 84.347656 89.296875 82.300781 Z M 72.222656 65.242188 " fill-opacity="1" fill-rule="nonzero"/><g clip-path="url(#id7)"><path fill="#d7dddc" d="M 34.125 67.875 C 15.6875 67.875 0.75 52.835938 0.75 34.5 C 0.75 16.164062 15.6875 1.125 34.125 1.125 C 52.5625 1.125 67.5 16.0625 67.5 34.5 C 67.5 52.9375 52.460938 67.875 34.125 67.875 Z M 34.125 3.183594 C 16.820312 3.183594 2.808594 17.195312 2.808594 34.5 C 2.808594 51.804688 16.820312 65.816406 34.125 65.816406 C 51.429688 65.816406 65.441406 51.804688 65.441406 34.5 C 65.441406 17.195312 51.328125 3.183594 34.125 3.183594 Z M 34.125 3.183594 " fill-opacity="1" fill-rule="nonzero"/></g><g clip-path="url(#id8)"><path fill="#d7dddc" d="M 33.289062 65.902344 C 15.675781 65.902344 1.414062 51.539062 1.414062 34.027344 C 1.414062 16.515625 15.675781 2.152344 33.289062 2.152344 C 50.898438 2.152344 65.164062 16.414062 65.164062 34.027344 C 65.164062 51.636719 50.800781 65.902344 33.289062 65.902344 Z M 33.289062 4.117188 C 16.757812 4.117188 3.378906 17.5 3.378906 34.027344 C 3.378906 50.554688 16.757812 63.933594 33.289062 63.933594 C 49.816406 63.933594 63.195312 50.554688 63.195312 34.027344 C 63.195312 17.5 49.714844 4.117188 33.289062 4.117188 Z M 33.289062 4.117188 " fill-opacity="1" fill-rule="nonzero"/></g></svg>